<?xml version="1.0" encoding="UTF-8"?>
<!DOCTYPE svg PUBLIC "-//W3C//DTD SVG 1.1//EN" "http://www.w3.org/Graphics/SVG/1.1/DTD/svg11.dtd">
<svg version="1.1" xmlns="http://www.w3.org/2000/svg" xmlns:xlink="http://www.w3.org/1999/xlink" x="0" y="0" width="83" height="104" viewBox="0, 0, 83, 104">
  <g id="Layer_1">
    <path d="M12.025,70.159 C4.605,62.749 -0.012,52.426 -0.002,41.1 C-0.012,29.775 4.605,19.451 12.025,12.033 C19.441,4.608 29.763,-0.006 41.093,0 C52.417,-0.006 62.743,4.608 70.155,12.033 C77.578,19.451 82.195,29.775 82.195,41.1 C82.195,52.425 77.578,62.748 70.156,70.159 C62.742,77.589 52.418,82.205 41.094,82.198 L41.078,82.198 C29.758,82.198 19.433,77.588 12.025,70.159 M23.236,23.246 C18.652,27.837 15.843,34.098 15.84,41.1 C15.844,48.098 18.652,54.364 23.236,58.955 C27.833,63.529 34.092,66.342 41.093,66.348 C48.092,66.342 54.352,63.53 58.948,58.955 C63.525,54.363 66.339,48.098 66.341,41.1 C66.339,34.098 63.526,27.837 58.948,23.246 C54.351,18.66 48.092,15.851 41.093,15.851 C34.092,15.851 27.833,18.66 23.236,23.246" fill="#000000"/>
    <path d="M10.66,87.513 L71.533,87.513 L71.533,103.362 L10.66,103.362 z" fill="#000000"/>
  </g>
</svg>
